<mxfile host="65bd71144e">
    <diagram id="-JIGsuzycu5oOylgM-sa" name="Page-1">
        <mxGraphModel dx="467" dy="174" grid="1" gridSize="10" guides="1" tooltips="1" connect="1" arrows="1" fold="1" page="1" pageScale="1" pageWidth="827" pageHeight="1169" math="0" shadow="0">
            <root>
                <mxCell id="0"/>
                <mxCell id="1" parent="0"/>
                <mxCell id="2" value="&lt;b&gt;SYUKRILLAH&lt;/b&gt;" style="text;html=1;align=center;verticalAlign=middle;resizable=0;points=[];autosize=1;fillColor=default;strokeWidth=1;labelBackgroundColor=none;labelBorderColor=none;spacing=0;spacingRight=-1;spacingLeft=-1;" vertex="1" parent="1">
                    <mxGeometry x="160" y="140" width="90" height="20" as="geometry"/>
                </mxCell>
            </root>
        </mxGraphModel>
    </diagram>
</mxfile>